<svg id="visual" viewBox="0 0 1920 1080" width="1920" height="1080" xmlns="http://www.w3.org/2000/svg" xmlns:xlink="http://www.w3.org/1999/xlink" version="1.1"><rect x="0" y="0" width="1920" height="1080" fill="#001220"></rect><path d="M0 642L80 643C160 644 320 646 480 645.8C640 645.7 800 643.3 960 658.3C1120 673.3 1280 705.7 1440 724.7C1600 743.7 1760 749.3 1840 752.2L1920 755L1920 1081L1840 1081C1760 1081 1600 1081 1440 1081C1280 1081 1120 1081 960 1081C800 1081 640 1081 480 1081C320 1081 160 1081 80 1081L0 1081Z" fill="#1f7689"></path><path d="M0 710L80 719.7C160 729.3 320 748.7 480 764.3C640 780 800 792 960 798.7C1120 805.3 1280 806.7 1440 796.2C1600 785.7 1760 763.3 1840 752.2L1920 741L1920 1081L1840 1081C1760 1081 1600 1081 1440 1081C1280 1081 1120 1081 960 1081C800 1081 640 1081 480 1081C320 1081 160 1081 80 1081L0 1081Z" fill="#005288"></path><path d="M0 843L80 842.5C160 842 320 841 480 828.7C640 816.3 800 792.7 960 788C1120 783.3 1280 797.7 1440 814.7C1600 831.7 1760 851.3 1840 861.2L1920 871L1920 1081L1840 1081C1760 1081 1600 1081 1440 1081C1280 1081 1120 1081 960 1081C800 1081 640 1081 480 1081C320 1081 160 1081 80 1081L0 1081Z" fill="#2d236e"></path><path d="M0 853L80 852.8C160 852.7 320 852.3 480 859.5C640 866.7 800 881.3 960 884.3C1120 887.3 1280 878.7 1440 870.5C1600 862.3 1760 854.7 1840 850.8L1920 847L1920 1081L1840 1081C1760 1081 1600 1081 1440 1081C1280 1081 1120 1081 960 1081C800 1081 640 1081 480 1081C320 1081 160 1081 80 1081L0 1081Z" fill="#2d236e"></path><path d="M0 911L80 912C160 913 320 915 480 919.2C640 923.3 800 929.7 960 929.3C1120 929 1280 922 1440 916.2C1600 910.3 1760 905.7 1840 903.3L1920 901L1920 1081L1840 1081C1760 1081 1600 1081 1440 1081C1280 1081 1120 1081 960 1081C800 1081 640 1081 480 1081C320 1081 160 1081 80 1081L0 1081Z" fill="#005288"></path><path d="M0 969L80 972.5C160 976 320 983 480 990.5C640 998 800 1006 960 1006.7C1120 1007.3 1280 1000.7 1440 1003.8C1600 1007 1760 1020 1840 1026.5L1920 1033L1920 1081L1840 1081C1760 1081 1600 1081 1440 1081C1280 1081 1120 1081 960 1081C800 1081 640 1081 480 1081C320 1081 160 1081 80 1081L0 1081Z" fill="#1f7689"></path></svg>